<svg xmlns="http://www.w3.org/2000/svg" xmlns:svg="http://www.w3.org/2000/svg" id="svg8" width="804.921" height="461.301" version="1.1" viewBox="0 0 212.969 122.053"><defs id="defs2"><marker id="marker24209" orient="auto" overflow="visible" refX="0" refY="0"><path id="path24207" fill="#ff2a2a" fill-opacity="1" fill-rule="evenodd" stroke="#ff2a2a" stroke-opacity="1" stroke-width="1.333" d="m -2.5,-1 c 0,2.76 -2.24,5 -5,5 -2.76,0 -5,-2.24 -5,-5 0,-2.76 2.24,-5 5,-5 2.76,0 5,2.24 5,5 z" transform="matrix(0.8,0,0,0.8,5.92,0.8)"/></marker><marker id="marker24061" orient="auto" overflow="visible" refX="0" refY="0"><path id="path24059" fill="red" fill-opacity="1" fill-rule="evenodd" stroke="red" stroke-opacity="1" stroke-width="1.333" d="M 0,0 5,-5 -12.5,0 5,5 Z" transform="matrix(-0.8,0,0,-0.8,-10,0)"/></marker><marker id="marker23919" orient="auto" overflow="visible" refX="0" refY="0"><path id="path23917" fill="#000" fill-opacity="1" fill-rule="evenodd" stroke="#000" stroke-opacity="1" stroke-width="1.333" d="M 0,0 5,-5 -12.5,0 5,5 Z" transform="matrix(-0.8,0,0,-0.8,-10,0)"/></marker><marker id="marker19211" orient="auto" overflow="visible" refX="0" refY="0"><path id="path19209" fill="#000" fill-opacity="1" fill-rule="evenodd" stroke="#000" stroke-opacity="1" stroke-width="1.333" d="m -2.5,-1 c 0,2.76 -2.24,5 -5,5 -2.76,0 -5,-2.24 -5,-5 0,-2.76 2.24,-5 5,-5 2.76,0 5,2.24 5,5 z" transform="matrix(0.8,0,0,0.8,5.92,0.8)"/></marker><marker id="marker18829" orient="auto" overflow="visible" refX="0" refY="0"><path id="path18827" fill="#000" fill-opacity="1" fill-rule="evenodd" stroke="#000" stroke-opacity="1" stroke-width="1.333" d="M 0,0 5,-5 -12.5,0 5,5 Z" transform="matrix(-0.8,0,0,-0.8,-10,0)"/></marker><marker id="marker18669" orient="auto" overflow="visible" refX="0" refY="0"><path id="path18667" fill="red" fill-opacity="1" fill-rule="evenodd" stroke="red" stroke-opacity="1" stroke-width="1.333" d="M 0,0 5,-5 -12.5,0 5,5 Z" transform="matrix(-0.8,0,0,-0.8,-10,0)"/></marker><marker id="marker18273" orient="auto" overflow="visible" refX="0" refY="0"><path id="path18271" fill="#000" fill-opacity="1" fill-rule="evenodd" stroke="#000" stroke-opacity="1" stroke-width="1.333" d="m -2.5,-1 c 0,2.76 -2.24,5 -5,5 -2.76,0 -5,-2.24 -5,-5 0,-2.76 2.24,-5 5,-5 2.76,0 5,2.24 5,5 z" transform="matrix(0.8,0,0,0.8,5.92,0.8)"/></marker><marker id="DotL" orient="auto" overflow="visible" refX="0" refY="0"><path id="path4943" fill="#ff2a2a" fill-opacity="1" fill-rule="evenodd" stroke="#ff2a2a" stroke-opacity="1" stroke-width="1.333" d="m -2.5,-1 c 0,2.76 -2.24,5 -5,5 -2.76,0 -5,-2.24 -5,-5 0,-2.76 2.24,-5 5,-5 2.76,0 5,2.24 5,5 z" transform="matrix(0.8,0,0,0.8,5.92,0.8)"/></marker><marker id="marker16641" orient="auto" overflow="visible" refX="0" refY="0"><path id="path16639" fill="red" fill-opacity="1" fill-rule="evenodd" stroke="red" stroke-opacity="1" stroke-width="1.333" d="M 0,0 5,-5 -12.5,0 5,5 Z" transform="matrix(-0.8,0,0,-0.8,-10,0)"/></marker><marker id="marker16107" orient="auto" overflow="visible" refX="0" refY="0"><path id="path16105" fill="red" fill-opacity="1" fill-rule="evenodd" stroke="red" stroke-opacity="1" stroke-width="1.333" d="M 0,0 5,-5 -12.5,0 5,5 Z" transform="matrix(-0.8,0,0,-0.8,-10,0)"/></marker><marker id="marker16049" orient="auto" overflow="visible" refX="0" refY="0"><path id="path16047" fill="#ff2a2a" fill-opacity="1" fill-rule="evenodd" stroke="#ff2a2a" stroke-opacity="1" stroke-width="1.333" d="M 0,0 5,-5 -12.5,0 5,5 Z" transform="matrix(-0.8,0,0,-0.8,-10,0)"/></marker><marker id="marker14617" orient="auto" overflow="visible" refX="0" refY="0"><path id="path14615" fill="#000" fill-opacity="1" fill-rule="evenodd" stroke="#000" stroke-opacity="1" stroke-width="1.333" d="M 0,0 5,-5 -12.5,0 5,5 Z" transform="matrix(-0.8,0,0,-0.8,-10,0)"/></marker><marker id="marker14497" orient="auto" overflow="visible" refX="0" refY="0"><path id="path14495" fill="#000" fill-opacity="1" fill-rule="evenodd" stroke="#000" stroke-opacity="1" stroke-width="1.333" d="M 0,0 5,-5 -12.5,0 5,5 Z" transform="matrix(-0.8,0,0,-0.8,-10,0)"/></marker><marker id="marker11970" orient="auto" overflow="visible" refX="0" refY="0"><path id="path11968" fill="#000" fill-opacity="1" fill-rule="evenodd" stroke="#000" stroke-opacity="1" stroke-width="1.333" d="M 0,0 5,-5 -12.5,0 5,5 Z" transform="matrix(-0.8,0,0,-0.8,-10,0)"/></marker><marker id="marker10863" orient="auto" overflow="visible" refX="0" refY="0"><path id="path10861" fill="#000" fill-opacity="1" fill-rule="evenodd" stroke="#000" stroke-opacity="1" stroke-width="1.333" d="M 0,0 5,-5 -12.5,0 5,5 Z" transform="matrix(-0.8,0,0,-0.8,-10,0)"/></marker><marker id="marker10763" orient="auto" overflow="visible" refX="0" refY="0"><path id="path10761" fill="#000" fill-opacity="1" fill-rule="evenodd" stroke="#000" stroke-opacity="1" stroke-width="1.333" d="M 0,0 5,-5 -12.5,0 5,5 Z" transform="matrix(-0.8,0,0,-0.8,-10,0)"/></marker><marker id="marker10651" orient="auto" overflow="visible" refX="0" refY="0"><path id="path10649" fill="#000" fill-opacity="1" fill-rule="evenodd" stroke="#000" stroke-opacity="1" stroke-width="1.333" d="M 0,0 5,-5 -12.5,0 5,5 Z" transform="matrix(-0.8,0,0,-0.8,-10,0)"/></marker><marker id="marker10521" orient="auto" overflow="visible" refX="0" refY="0"><path id="path10519" fill="#000" fill-opacity="1" fill-rule="evenodd" stroke="#000" stroke-opacity="1" stroke-width="1.333" d="M 0,0 5,-5 -12.5,0 5,5 Z" transform="matrix(-0.8,0,0,-0.8,-10,0)"/></marker><marker id="marker10161" orient="auto" overflow="visible" refX="0" refY="0"><path id="path10159" fill="#000" fill-opacity="1" fill-rule="evenodd" stroke="#000" stroke-opacity="1" stroke-width="1.333" d="M 0,0 5,-5 -12.5,0 5,5 Z" transform="matrix(-0.8,0,0,-0.8,-10,0)"/></marker><marker id="Arrow1Lend" orient="auto" overflow="visible" refX="0" refY="0"><path id="path4885" fill="#000" fill-opacity="1" fill-rule="evenodd" stroke="#000" stroke-opacity="1" stroke-width="1.333" d="M 0,0 5,-5 -12.5,0 5,5 Z" transform="matrix(-0.8,0,0,-0.8,-10,0)"/></marker></defs><metadata id="metadata5"/><g id="layer1" transform="translate(5.5587069,-40.331398)"><rect id="use4630" width="13.346" height="13.346" x="3.722" y="68.214" fill="gray" fill-opacity=".888" stroke="#000" stroke-dasharray="none" stroke-dashoffset="0" stroke-linecap="butt" stroke-linejoin="miter" stroke-miterlimit="4" stroke-opacity="1" stroke-width=".849" opacity="1"/><rect id="use4634" width="13.346" height="13.346" x="17.216" y="68.266" fill="gray" fill-opacity=".888" stroke="#000" stroke-dasharray="none" stroke-dashoffset="0" stroke-linecap="butt" stroke-linejoin="miter" stroke-miterlimit="4" stroke-opacity="1" stroke-width=".849" opacity="1"/><rect id="use4638" width="13.346" height="13.346" x="30.71" y="68.266" fill="gray" fill-opacity=".888" stroke="#000" stroke-dasharray="none" stroke-dashoffset="0" stroke-linecap="butt" stroke-linejoin="miter" stroke-miterlimit="4" stroke-opacity="1" stroke-width=".849" opacity="1"/><rect id="use4642" width="13.346" height="13.346" x="44.204" y="68.266" fill="gray" fill-opacity=".888" stroke="#000" stroke-dasharray="none" stroke-dashoffset="0" stroke-linecap="butt" stroke-linejoin="miter" stroke-miterlimit="4" stroke-opacity="1" stroke-width=".849" opacity="1"/><rect id="use4646" width="13.346" height="13.346" x="57.698" y="68.266" fill="none" fill-opacity=".888" stroke="#000" stroke-dasharray="none" stroke-dashoffset="0" stroke-linecap="butt" stroke-linejoin="miter" stroke-miterlimit="4" stroke-opacity="1" stroke-width=".849" opacity="1"/><rect id="use4650" width="13.346" height="13.346" x="71.192" y="68.266" fill="none" fill-opacity=".888" stroke="#000" stroke-dasharray="none" stroke-dashoffset="0" stroke-linecap="butt" stroke-linejoin="miter" stroke-miterlimit="4" stroke-opacity="1" stroke-width=".849" opacity="1"/><rect id="use4654" width="13.346" height="13.346" x="84.687" y="68.266" fill="none" fill-opacity=".888" stroke="#000" stroke-dasharray="none" stroke-dashoffset="0" stroke-linecap="butt" stroke-linejoin="miter" stroke-miterlimit="4" stroke-opacity="1" stroke-width=".849" opacity="1"/><rect id="use4658" width="13.346" height="13.346" x="98.181" y="68.266" fill="none" fill-opacity=".888" stroke="#000" stroke-dasharray="none" stroke-dashoffset="0" stroke-linecap="butt" stroke-linejoin="miter" stroke-miterlimit="4" stroke-opacity="1" stroke-width=".849" opacity="1"/><rect id="use4662" width="13.346" height="13.346" x="111.675" y="68.266" fill="none" fill-opacity=".888" stroke="#000" stroke-dasharray="none" stroke-dashoffset="0" stroke-linecap="butt" stroke-linejoin="miter" stroke-miterlimit="4" stroke-opacity="1" stroke-width=".849" opacity="1"/><rect id="use4666" width="13.346" height="13.346" x="125.169" y="68.266" fill="none" fill-opacity=".888" stroke="#000" stroke-dasharray="none" stroke-dashoffset="0" stroke-linecap="butt" stroke-linejoin="miter" stroke-miterlimit="4" stroke-opacity="1" stroke-width=".849" opacity="1"/><rect id="use4670" width="13.346" height="13.346" x="138.663" y="68.266" fill="none" fill-opacity=".888" stroke="#000" stroke-dasharray="none" stroke-dashoffset="0" stroke-linecap="butt" stroke-linejoin="miter" stroke-miterlimit="4" stroke-opacity="1" stroke-width=".849" opacity="1"/><rect id="use4674" width="13.346" height="13.346" x="152.157" y="68.266" fill="none" fill-opacity=".888" stroke="#000" stroke-dasharray="none" stroke-dashoffset="0" stroke-linecap="butt" stroke-linejoin="miter" stroke-miterlimit="4" stroke-opacity="1" stroke-width=".849" opacity="1"/><rect id="use4678" width="13.346" height="13.346" x="165.652" y="68.266" fill="none" fill-opacity=".888" stroke="#000" stroke-dasharray="none" stroke-dashoffset="0" stroke-linecap="butt" stroke-linejoin="miter" stroke-miterlimit="4" stroke-opacity="1" stroke-width=".849" opacity="1"/><rect id="use4682" width="13.346" height="13.346" x="179.146" y="68.266" fill="none" fill-opacity=".888" stroke="#000" stroke-dasharray="none" stroke-dashoffset="0" stroke-linecap="butt" stroke-linejoin="miter" stroke-miterlimit="4" stroke-opacity="1" stroke-width=".849" opacity="1"/><rect id="use4686" width="13.346" height="13.346" x="192.64" y="68.266" fill="none" fill-opacity=".888" stroke="#000" stroke-dasharray="none" stroke-dashoffset="0" stroke-linecap="butt" stroke-linejoin="miter" stroke-miterlimit="4" stroke-opacity="1" stroke-width=".849" opacity="1"/><rect id="use4690" width="13.346" height="13.346" x="3.722" y="41.756" fill="#00cade" fill-opacity="1" stroke="#000" stroke-dasharray="none" stroke-dashoffset="0" stroke-linecap="butt" stroke-linejoin="miter" stroke-miterlimit="4" stroke-opacity="1" stroke-width=".849" opacity="1"/><rect id="use4692" width="13.346" height="13.346" x="17.216" y="41.808" fill="#00cade" fill-opacity="1" stroke="#000" stroke-dasharray="none" stroke-dashoffset="0" stroke-linecap="butt" stroke-linejoin="miter" stroke-miterlimit="4" stroke-opacity="1" stroke-width=".849" opacity="1"/><rect id="use4694" width="13.346" height="13.346" x="30.71" y="41.808" fill="#00cade" fill-opacity="1" stroke="#000" stroke-dasharray="none" stroke-dashoffset="0" stroke-linecap="butt" stroke-linejoin="miter" stroke-miterlimit="4" stroke-opacity="1" stroke-width=".849" opacity="1"/><rect id="use4704" width="13.346" height="13.346" x="3.722" y="121.131" fill="gray" fill-opacity=".888" stroke="#000" stroke-dasharray="none" stroke-dashoffset="0" stroke-linecap="butt" stroke-linejoin="miter" stroke-miterlimit="4" stroke-opacity="1" stroke-width=".849" opacity="1"/><rect id="use4706" width="13.346" height="13.346" x="3.722" y="134.677" fill="gray" fill-opacity=".89" stroke="#000" stroke-dasharray="none" stroke-dashoffset="0" stroke-linecap="butt" stroke-linejoin="miter" stroke-miterlimit="4" stroke-opacity="1" stroke-width=".849" opacity="1"/><rect id="rect10135" width="13.346" height="13.346" x="17.291" y="134.606" fill="gray" fill-opacity=".89" stroke="#000" stroke-dasharray="none" stroke-dashoffset="0" stroke-linecap="butt" stroke-linejoin="miter" stroke-miterlimit="4" stroke-opacity="1" stroke-width=".849" opacity="1"/><rect id="use4708" width="13.346" height="13.346" x="17.216" y="121.183" fill="gray" fill-opacity=".888" stroke="#000" stroke-dasharray="none" stroke-dashoffset="0" stroke-linecap="butt" stroke-linejoin="miter" stroke-miterlimit="4" stroke-opacity="1" stroke-width=".849" opacity="1"/><rect id="use4712" width="13.346" height="13.346" x="30.71" y="121.183" fill="gray" fill-opacity=".888" stroke="#000" stroke-dasharray="none" stroke-dashoffset="0" stroke-linecap="butt" stroke-linejoin="miter" stroke-miterlimit="4" stroke-opacity="1" stroke-width=".849" opacity="1"/><rect id="use4716" width="13.346" height="13.346" x="44.204" y="121.183" fill="gray" fill-opacity=".888" stroke="#000" stroke-dasharray="none" stroke-dashoffset="0" stroke-linecap="butt" stroke-linejoin="miter" stroke-miterlimit="4" stroke-opacity="1" stroke-width=".849" opacity="1"/><rect id="use4738" width="13.346" height="13.346" x="111.675" y="134.677" fill="#000" fill-opacity="0" stroke="#000" stroke-dasharray="none" stroke-dashoffset="0" stroke-linecap="butt" stroke-linejoin="miter" stroke-miterlimit="4" stroke-opacity="1" stroke-width=".849" opacity="1"/><rect id="use4742" width="13.346" height="13.346" x="125.169" y="134.677" fill="#000" fill-opacity="0" stroke="#000" stroke-dasharray="none" stroke-dashoffset="0" stroke-linecap="butt" stroke-linejoin="miter" stroke-miterlimit="4" stroke-opacity="1" stroke-width=".849" opacity="1"/><rect id="use4746" width="13.346" height="13.346" x="138.663" y="134.677" fill="#000" fill-opacity="0" stroke="#000" stroke-dasharray="none" stroke-dashoffset="0" stroke-linecap="butt" stroke-linejoin="miter" stroke-miterlimit="4" stroke-opacity="1" stroke-width=".849" opacity="1"/><rect id="use4748" width="13.346" height="13.346" x="152.157" y="121.183" fill="gray" fill-opacity=".89" stroke="#000" stroke-dasharray="none" stroke-dashoffset="0" stroke-linecap="butt" stroke-linejoin="miter" stroke-miterlimit="4" stroke-opacity="1" stroke-width=".849" opacity="1"/><rect id="use4750" width="13.346" height="13.346" x="152.157" y="134.677" fill="#000" fill-opacity="0" stroke="#000" stroke-dasharray="none" stroke-dashoffset="0" stroke-linecap="butt" stroke-linejoin="miter" stroke-miterlimit="4" stroke-opacity="1" stroke-width=".849" opacity="1"/><rect id="use4752" width="13.346" height="13.346" x="165.652" y="121.183" fill="gray" fill-opacity=".89" stroke="#000" stroke-dasharray="none" stroke-dashoffset="0" stroke-linecap="butt" stroke-linejoin="miter" stroke-miterlimit="4" stroke-opacity="1" stroke-width=".849" opacity="1"/><rect id="use4754" width="13.346" height="13.346" x="165.652" y="134.677" fill="#000" fill-opacity="0" stroke="#000" stroke-dasharray="none" stroke-dashoffset="0" stroke-linecap="butt" stroke-linejoin="miter" stroke-miterlimit="4" stroke-opacity="1" stroke-width=".849" opacity="1"/><rect id="use4756" width="13.346" height="13.346" x="179.146" y="121.183" fill="gray" fill-opacity=".89" stroke="#000" stroke-dasharray="none" stroke-dashoffset="0" stroke-linecap="butt" stroke-linejoin="miter" stroke-miterlimit="4" stroke-opacity="1" stroke-width=".849" opacity="1"/><rect id="use4758" width="13.346" height="13.346" x="179.146" y="134.677" fill="#000" fill-opacity="0" stroke="#000" stroke-dasharray="none" stroke-dashoffset="0" stroke-linecap="butt" stroke-linejoin="miter" stroke-miterlimit="4" stroke-opacity="1" stroke-width=".849" opacity="1"/><rect id="use4760" width="13.346" height="13.346" x="192.64" y="121.183" fill="gray" fill-opacity=".89" stroke="#000" stroke-dasharray="none" stroke-dashoffset="0" stroke-linecap="butt" stroke-linejoin="miter" stroke-miterlimit="4" stroke-opacity="1" stroke-width=".849" opacity="1"/><rect id="use4762" width="13.346" height="13.346" x="192.64" y="134.677" fill="#000" fill-opacity="0" stroke="#000" stroke-dasharray="none" stroke-dashoffset="0" stroke-linecap="butt" stroke-linejoin="miter" stroke-miterlimit="4" stroke-opacity="1" stroke-width=".849" opacity="1"/><path id="path4880" fill="none" fill-rule="evenodd" stroke="#000" stroke-dasharray="none" stroke-linecap="butt" stroke-linejoin="miter" stroke-miterlimit="4" stroke-opacity="1" stroke-width=".265" marker-end="url(#Arrow1Lend)" d="m 11.401832,56.015281 c 8.27878,1.448758 8.156409,9.147971 20.906693,6.143144 12.089624,-2.849131 20.999691,-3.083804 30.056535,3.808375"/><rect id="rect10121" width="13.346" height="13.346" x="57.697" y="121.131" fill="#00cade" fill-opacity="1" stroke="#000" stroke-dasharray="none" stroke-dashoffset="0" stroke-linecap="butt" stroke-linejoin="miter" stroke-miterlimit="4" stroke-opacity="1" stroke-width=".849" opacity="1"/><rect id="rect10123" width="13.346" height="13.346" x="71.191" y="121.183" fill="#ff0" fill-opacity="1" stroke="#000" stroke-dasharray="none" stroke-dashoffset="0" stroke-linecap="butt" stroke-linejoin="miter" stroke-miterlimit="4" stroke-opacity="1" stroke-width=".849" opacity="1"/><rect id="rect10125" width="13.346" height="13.346" x="84.685" y="121.183" fill="#00cade" fill-opacity="1" stroke="#000" stroke-dasharray="none" stroke-dashoffset="0" stroke-linecap="butt" stroke-linejoin="miter" stroke-miterlimit="4" stroke-opacity="1" stroke-width=".849" opacity="1"/><rect id="rect10127" width="13.346" height="13.346" x="98.179" y="121.183" fill="#ff0" fill-opacity="1" stroke="#000" stroke-dasharray="none" stroke-dashoffset="0" stroke-linecap="butt" stroke-linejoin="miter" stroke-miterlimit="4" stroke-opacity="1" stroke-width=".849" opacity="1"/><rect id="rect10129" width="13.346" height="13.346" x="111.673" y="121.183" fill="#00cade" fill-opacity="1" stroke="#000" stroke-dasharray="none" stroke-dashoffset="0" stroke-linecap="butt" stroke-linejoin="miter" stroke-miterlimit="4" stroke-opacity="1" stroke-width=".849" opacity="1"/><rect id="rect10131" width="13.346" height="13.346" x="125.167" y="121.183" fill="#ff0" fill-opacity="1" stroke="#000" stroke-dasharray="none" stroke-dashoffset="0" stroke-linecap="butt" stroke-linejoin="miter" stroke-miterlimit="4" stroke-opacity="1" stroke-width=".849" opacity="1"/><rect id="rect10133" width="13.346" height="13.346" x="138.662" y="121.183" fill="gray" fill-opacity=".89" stroke="#000" stroke-dasharray="none" stroke-dashoffset="0" stroke-linecap="butt" stroke-linejoin="miter" stroke-miterlimit="4" stroke-opacity="1" stroke-width=".849" opacity="1"/><rect id="rect10137" width="13.346" height="13.346" x="30.785" y="134.658" fill="#d762e6" fill-opacity="1" stroke="#000" stroke-dasharray="none" stroke-dashoffset="0" stroke-linecap="butt" stroke-linejoin="miter" stroke-miterlimit="4" stroke-opacity="1" stroke-width=".849" opacity="1"/><rect id="rect10139" width="13.346" height="13.346" x="44.279" y="134.658" fill="#ff0" fill-opacity="1" stroke="#000" stroke-dasharray="none" stroke-dashoffset="0" stroke-linecap="butt" stroke-linejoin="miter" stroke-miterlimit="4" stroke-opacity="1" stroke-width=".849" opacity="1"/><rect id="rect10141" width="13.346" height="13.346" x="57.773" y="134.658" fill="#000" fill-opacity="0" stroke="#000" stroke-dasharray="none" stroke-dashoffset="0" stroke-linecap="butt" stroke-linejoin="miter" stroke-miterlimit="4" stroke-opacity="1" stroke-width=".849" opacity="1"/><rect id="rect10143" width="13.346" height="13.346" x="71.268" y="134.658" fill="#000" fill-opacity="0" stroke="#000" stroke-dasharray="none" stroke-dashoffset="0" stroke-linecap="butt" stroke-linejoin="miter" stroke-miterlimit="4" stroke-opacity="1" stroke-width=".849" opacity="1"/><rect id="rect10145" width="13.346" height="13.346" x="84.762" y="134.658" fill="#000" fill-opacity="0" stroke="#000" stroke-dasharray="none" stroke-dashoffset="0" stroke-linecap="butt" stroke-linejoin="miter" stroke-miterlimit="4" stroke-opacity="1" stroke-width=".849" opacity="1"/><rect id="rect10147" width="13.346" height="13.346" x="98.256" y="134.658" fill="#000" fill-opacity="0" stroke="#000" stroke-dasharray="none" stroke-dashoffset="0" stroke-linecap="butt" stroke-linejoin="miter" stroke-miterlimit="4" stroke-opacity="1" stroke-width=".849" opacity="1"/><rect id="rect11890" width="13.346" height="13.346" x="139.216" y="87.465" fill="#d762e6" fill-opacity="1" stroke="#000" stroke-dasharray="none" stroke-dashoffset="0" stroke-linecap="butt" stroke-linejoin="miter" stroke-miterlimit="4" stroke-opacity="1" stroke-width=".849" opacity="1"/><path id="path11892" fill="none" fill-rule="evenodd" stroke="#000" stroke-dasharray="none" stroke-linecap="butt" stroke-linejoin="miter" stroke-miterlimit="4" stroke-opacity="1" stroke-width=".265" marker-end="url(#marker10161)" d="m 145.69225,100.88693 v 10.96131"/><g aria-label="X" style="line-height:25px" id="g11896" fill="red" fill-opacity="1" stroke="none" stroke-linecap="butt" stroke-linejoin="miter" stroke-opacity="1" stroke-width="1" font-family="sans-serif" font-size="40" font-style="normal" font-weight="normal" letter-spacing="0" transform="matrix(0.26458333,0,0,0.26458333,182.9607,51.667852)" word-spacing="0"><path style="-inkscape-font-specification:Eggs" id="path11894" fill="red" d="m -140.33789,228.45019 q 4.62891,-0.0781 7.5,3.94531 2.87109,4.0039 3.96484,8.98437 1.05469,5 -2.65625,9.14063 -3.71093,4.12109 -8.33984,4.19922 -4.64844,0.0977 -8.51563,-3.76953 -3.84765,-3.86719 -2.94921,-9.16016 0.8789,-5.3125 3.61328,-9.27734 2.73437,-3.98438 7.38281,-4.0625 z m -0.35156,9.17968 q -0.15625,0 -0.54688,-0.5664 -0.39062,-0.58594 -0.39062,-0.58594 0,-1.99219 -1.875,-2.71484 -1.85547,-0.72266 -3.41797,-0.72266 0,0.72266 0.27344,1.44531 0.29296,0.72266 0.29296,1.42578 0.13672,0 0.3711,0.39063 0.23437,0.37109 0.39062,0.37109 0.13672,0.58594 1.28907,1.67969 1.15234,1.07422 1.73828,1.36719 0,0.15625 0.27343,0.46875 0.27344,0.29297 0.27344,0.29297 0,1.15234 -1.32812,2.14843 -1.3086,0.9961 -1.3086,1.85547 -1.28906,0.58594 -1.67968,1.91406 -0.39063,1.32813 -0.39063,2.46094 l 3.76953,-0.19531 1.89453,-1.89453 q 0,-0.58594 0.3711,-1.05469 0.37109,-0.46875 0.37109,-1.05469 l 0.19531,-0.17578 q 0.41016,0 1.71875,-0.0977 1.3086,-0.0977 1.3086,1.03515 0.37109,0 0.37109,0.39063 0.83984,0 2.36328,1.13281 1.54297,1.11328 2.53906,-0.17578 h 0.19532 q 0,-2.42188 -0.9961,-3.00781 -0.99609,-0.60547 -2.40234,-1.75782 v -0.19531 q -0.29297,0 -0.58594,-0.17578 -0.27344,-0.19531 -0.54687,-0.19531 0,-0.39063 -0.3711,-0.39063 0,-1.85547 1.13282,-3.6914 1.13281,-1.83594 1.13281,-4.1211 -1.42578,0 -2.2461,0.29297 -0.80078,0.29297 -1.91406,0.85938 0,0.29296 -0.19531,0.58593 -0.17578,0.27344 -0.17578,0.54688 0,0 -0.23438,0.39062 -0.21484,0.3711 -0.33203,0.3711 0,0.15625 -0.0976,0.58593 -0.0977,0.42969 -0.0977,0.56641 h -0.19531 v 0.37109 l -0.17578,0.19532 q 0,0 -0.39063,0 0,-0.27344 -0.19531,-0.17578 -0.17578,0.0977 -0.17578,-0.19532 z" font-family="Eggs" font-stretch="normal" font-style="normal" font-variant="normal" font-weight="normal"/></g><path id="path14613" fill="none" fill-rule="evenodd" stroke="#000" stroke-dasharray="none" stroke-linecap="butt" stroke-linejoin="miter" stroke-miterlimit="4" stroke-opacity="1" stroke-width=".265" marker-end="url(#marker18829)" d="M 131.13892,120.50469 C 91.587191,101.2049 8.8175251,85.073224 -2.1155044,121.62766 -14.70732,163.72821 27.277696,165.52384 48.700673,148.52606"/><path id="path14733" fill="none" fill-rule="evenodd" stroke="#000" stroke-dasharray="none" stroke-linecap="butt" stroke-linejoin="miter" stroke-miterlimit="4" stroke-opacity="1" stroke-width=".265" marker-end="url(#marker19211)" d="m 49.219473,148.13473 c 3.62253,1.64554 4.02805,6.17665 4.02345,12.06905"/><path id="path16637" fill="none" fill-rule="evenodd" stroke="red" stroke-dasharray="none" stroke-linecap="butt" stroke-linejoin="miter" stroke-miterlimit="4" stroke-opacity="1" stroke-width=".265" marker-end="url(#marker16641)" d="m 54.031662,148.54859 c 8.433381,8.46091 41.579419,12.99203 62.689108,-13.45518"/><rect id="rect18643" width="13.346" height="13.346" x="57.697" y="68.214" fill="#00cade" fill-opacity="1" stroke="#000" stroke-dasharray="none" stroke-dashoffset="0" stroke-linecap="butt" stroke-linejoin="miter" stroke-miterlimit="4" stroke-opacity="1" stroke-width=".849" opacity="1"/><rect id="rect18645" width="13.346" height="13.346" x="71.191" y="68.266" fill="#ff0" fill-opacity="1" stroke="#000" stroke-dasharray="none" stroke-dashoffset="0" stroke-linecap="butt" stroke-linejoin="miter" stroke-miterlimit="4" stroke-opacity="1" stroke-width=".849" opacity="1"/><rect id="rect18647" width="13.346" height="13.346" x="84.685" y="68.266" fill="#00cade" fill-opacity="1" stroke="#000" stroke-dasharray="none" stroke-dashoffset="0" stroke-linecap="butt" stroke-linejoin="miter" stroke-miterlimit="4" stroke-opacity="1" stroke-width=".849" opacity="1"/><rect id="rect18649" width="13.346" height="13.346" x="98.179" y="68.266" fill="#ff0" fill-opacity="1" stroke="#000" stroke-dasharray="none" stroke-dashoffset="0" stroke-linecap="butt" stroke-linejoin="miter" stroke-miterlimit="4" stroke-opacity="1" stroke-width=".849" opacity="1"/><rect id="rect18651" width="13.346" height="13.346" x="111.673" y="68.266" fill="#00cade" fill-opacity="1" stroke="#000" stroke-dasharray="none" stroke-dashoffset="0" stroke-linecap="butt" stroke-linejoin="miter" stroke-miterlimit="4" stroke-opacity="1" stroke-width=".849" opacity="1"/><rect id="rect18653" width="13.346" height="13.346" x="125.167" y="68.266" fill="#ff0" fill-opacity="1" stroke="#000" stroke-dasharray="none" stroke-dashoffset="0" stroke-linecap="butt" stroke-linejoin="miter" stroke-miterlimit="4" stroke-opacity="1" stroke-width=".849" opacity="1"/><path id="path18655" fill="none" fill-rule="evenodd" stroke="#000" stroke-dasharray="none" stroke-linecap="butt" stroke-linejoin="miter" stroke-miterlimit="4" stroke-opacity="1" stroke-width=".265" marker-end="url(#marker14497)" d="m 76.75092,67.320741 c 3.622526,-1.64554 -0.114639,-20.475558 15.382385,-0.44283"/><path id="path18657" fill="none" fill-rule="evenodd" stroke="#000" stroke-dasharray="none" stroke-linecap="butt" stroke-linejoin="miter" stroke-miterlimit="4" stroke-opacity="1" stroke-width=".265" marker-end="url(#marker14617)" d="m 103.20925,67.320741 c 3.62253,-1.64554 -0.11463,-20.475558 15.3824,-0.44283"/><path id="path18659" fill="none" fill-rule="evenodd" stroke="#000" stroke-dasharray="none" stroke-linecap="butt" stroke-linejoin="miter" stroke-miterlimit="4" stroke-opacity="1" stroke-width=".265" marker-end="url(#marker18273)" d="m 129.6676,67.320741 c 3.62253,-1.64554 4.02805,-6.176647 4.02345,-12.069044"/><path id="path18661" fill="none" fill-rule="evenodd" stroke="#ff2a2a" stroke-dasharray="none" stroke-linecap="butt" stroke-linejoin="miter" stroke-miterlimit="4" stroke-opacity="1" stroke-width=".265" marker-end="url(#DotL)" d="m 78.246889,81.637192 c 0.252878,6.456387 -6.433476,7.913894 -13.377883,6.857287"/><path id="path18663" fill="none" fill-rule="evenodd" stroke="red" stroke-dasharray="none" stroke-linecap="butt" stroke-linejoin="miter" stroke-miterlimit="4" stroke-opacity="1" stroke-width=".265" marker-end="url(#marker16107)" d="m 102.28226,82.134792 c -3.622523,1.64554 -21.400557,19.807388 -36.897579,-0.22534"/><path id="path18665" fill="none" fill-rule="evenodd" stroke="red" stroke-dasharray="none" stroke-linecap="butt" stroke-linejoin="miter" stroke-miterlimit="4" stroke-opacity="1" stroke-width=".265" marker-end="url(#marker18669)" d="m 128.74061,82.134792 c -3.62253,1.64554 -21.40057,19.807388 -36.897594,-0.22534"/></g></svg>